<?xml version="1.0" encoding="utf-8"?>
<!-- Generator: Adobe Illustrator 28.0.0, SVG Export Plug-In . SVG Version: 6.00 Build 0)  -->
<svg version="1.1" id="Layer_1" xmlns="http://www.w3.org/2000/svg" xmlns:xlink="http://www.w3.org/1999/xlink" x="0px" y="0px"
	 viewBox="0 0 1213.44 369.57" style="enable-background:new 0 0 1213.44 369.57;" xml:space="preserve">
<style type="text/css">
	.st0{opacity:0;fill:#FFFFFF;}
	.st1{fill:#3B6EF8;}
	.st2{fill:#E8ECF5;}
</style>
<rect x="0" class="st0" width="1213.44" height="368.61"/>
<g>
	<g>
		<path class="st1" d="M565.32,128.42h26.38c8.58,0,15.02,2.36,19.32,7.09c4.29,4.73,6.44,11.66,6.44,20.79v57.05
			c0,9.13-2.15,16.06-6.44,20.79c-4.29,4.73-10.73,7.09-19.32,7.09h-26.38V128.42z M591.39,225.11c2.83,0,5-0.86,6.52-2.58
			c1.52-1.72,2.28-4.51,2.28-8.38v-58.66c0-3.87-0.76-6.66-2.28-8.38c-1.52-1.72-3.69-2.58-6.52-2.58h-8.79v80.58H591.39z"/>
		<path class="st1" d="M643.37,128.42h17.27v112.81h-17.27V128.42z"/>
		<path class="st1" d="M694.72,235.51c-4.4-4.89-6.6-11.9-6.6-21.03v-59.3c0-9.13,2.2-16.14,6.6-21.03
			c4.4-4.89,10.78-7.33,19.16-7.33c8.37,0,14.76,2.44,19.16,7.33c4.4,4.89,6.6,11.9,6.6,21.03v9.67H723.3v-10.8
			c0-7.41-2.98-11.12-8.95-11.12s-8.95,3.71-8.95,11.12v61.72c0,7.31,2.98,10.96,8.95,10.96s8.95-3.65,8.95-10.96v-22.08h-8.64
			v-16.12h24.97v36.9c0,9.13-2.2,16.14-6.6,21.03c-4.4,4.89-10.78,7.33-19.16,7.33C705.5,242.84,699.12,240.39,694.72,235.51z"/>
		<path class="st1" d="M765.23,128.42h17.27v112.81h-17.27V128.42z"/>
		<path class="st1" d="M823.33,144.53h-18.06v-16.12h53.39v16.12H840.6v96.69h-17.27V144.53z"/>
		<path class="st1" d="M895.1,128.42h23.4l17.9,112.81h-17.27l-3.14-22.4v0.32h-19.63l-3.14,22.08h-16.02L895.1,128.42z
			 M913.94,203.84l-7.69-55.76h-0.31l-7.54,55.76H913.94z"/>
		<path class="st1" d="M960.58,128.42h17.27v96.69h28.42v16.12h-45.7V128.42z"/>
		<path class="st1" d="M1033.91,235.51c-4.29-4.89-6.44-11.9-6.44-21.03v-6.45h16.33v7.74c0,7.31,2.98,10.96,8.95,10.96
			c2.93,0,5.16-0.89,6.67-2.66c1.52-1.77,2.28-4.65,2.28-8.62c0-4.73-1.05-8.89-3.14-12.49c-2.1-3.6-5.97-7.92-11.62-12.97
			c-7.12-6.45-12.09-12.27-14.92-17.49c-2.83-5.21-4.24-11.09-4.24-17.65c0-8.92,2.2-15.82,6.6-20.71
			c4.4-4.89,10.78-7.33,19.16-7.33c8.27,0,14.53,2.44,18.77,7.33c4.24,4.89,6.36,11.9,6.36,21.03v4.67h-16.33v-5.8
			c0-3.87-0.73-6.69-2.2-8.46c-1.47-1.77-3.61-2.66-6.44-2.66c-5.76,0-8.64,3.6-8.64,10.8c0,4.08,1.07,7.9,3.22,11.44
			c2.14,3.55,6.05,7.84,11.7,12.89c7.22,6.45,12.19,12.3,14.92,17.57c2.72,5.26,4.08,11.44,4.08,18.53c0,9.24-2.23,16.33-6.67,21.27
			c-4.45,4.94-10.91,7.41-19.39,7.41C1044.54,242.84,1038.2,240.39,1033.91,235.51z"/>
	</g>
	<g>
		<g>
			<path class="st2" d="M134.45,101.66h25.88l16.79,128.97h0.47l16.79-128.97h23.55l-24.71,166.26h-34.04L134.45,101.66z"/>
		</g>
	</g>
	<g>
		<g>
			<path class="st2" d="M226.54,101.66h25.88l16.79,128.97h0.47l16.79-128.97h23.55L285.3,267.92h-34.04L226.54,101.66z"/>
		</g>
	</g>
	<g>
		<g>
			<path class="st2" d="M317.67,101.66h25.88l16.79,128.97h0.47l16.79-128.97h23.55l-24.71,166.26h-34.04L317.67,101.66z"/>
		</g>
	</g>
	<g>
		<g>
			<path class="st1" d="M408.83,101.66h23.55l-24.71,166.26h-22.12L408.83,101.66z"/>
		</g>
	</g>
	<rect x="493.76" y="105.81" class="st1" width="4" height="158.04"/>
</g>
</svg>
